<?xml version="1.0" encoding="utf-8"?>
<!-- Garden Gnome Software - Skin Buttons -->
<!DOCTYPE svg PUBLIC "-//W3C//DTD SVG 1.1 Basic//EN" "http://www.w3.org/Graphics/SVG/1.1/DTD/svg11-basic.dtd">
<svg version="1.1" baseProfile="basic" id="Layer_1" xmlns="http://www.w3.org/2000/svg" xmlns:xlink="http://www.w3.org/1999/xlink"
			x="0px" y="0px" width="32px" height="32px" viewBox="0 0 32 32" xml:space="preserve">
	<g opacity="0.4" stroke="#3C3C3C" stroke-width="1.5">
	<path d="M28.499,15.344l-7.64,1.983V9.242l7.64-1.905V15.344z M19.836,9.229v7.933l-7.673-3.833V5.416
		C12.163,5.416,19.778,9.209,19.836,9.229z M11.141,5.155v8.092L3.5,15.166V7.06L11.141,5.155z M3.5,16.22l7.641-1.919v8.32
		c0,0.045,0.008,0.09,0.019,0.132L3.5,24.662V16.22z M12.335,22.838c-0.063-0.032-0.127-0.058-0.194-0.08
		c0.012-0.044,0.021-0.09,0.021-0.137v-8.149l7.673,3.832v8.281L12.335,22.838z M20.859,26.846v-8.462l7.64-1.982L28.5,24.94
		L20.859,26.846z"/>
	</g>
	<g fill="#FFFFFF" stroke="#000000" stroke-width="0.2">
	<path d="M28.499,15.344l-7.64,1.983V9.242l7.64-1.905V15.344z M19.836,9.229v7.933l-7.673-3.833V5.416
		C12.163,5.416,19.778,9.209,19.836,9.229z M11.141,5.155v8.092L3.5,15.166V7.06L11.141,5.155z M3.5,16.22l7.641-1.919v8.32
		c0,0.045,0.008,0.09,0.019,0.132L3.5,24.662V16.22z M12.335,22.838c-0.063-0.032-0.127-0.058-0.194-0.08
		c0.012-0.044,0.021-0.09,0.021-0.137v-8.149l7.673,3.832v8.281L12.335,22.838z M20.859,26.846v-8.462l7.64-1.982L28.5,24.94
		L20.859,26.846z"/>
	</g>
</svg>